<svg xmlns="http://www.w3.org/2000/svg" width="900" height="600" viewBox="0 0 900 600" role="img" aria-label="Motif cartographique subtil">
  <rect width="900" height="600" fill="none"/>
  <g fill="none" stroke="#F6F3EA" stroke-opacity="0.09" stroke-width="1">
    <path d="M-40 105C95 82 165 150 283 127c101-20 158-87 281-63 88 17 146 72 239 55 58-10 104-41 155-69"/>
    <path d="M-48 212C78 177 161 247 265 222c122-29 174-105 308-72 83 20 133 70 231 52 63-12 114-44 166-73"/>
    <path d="M-38 330C91 279 187 363 310 324c107-34 167-94 280-66 86 21 139 72 234 52 72-15 122-55 179-89"/>
    <path d="M-38 450C84 395 179 487 306 439c111-42 179-88 296-62 91 21 149 69 238 49 61-14 111-48 162-78"/>
  </g>
</svg>
